# This file uses centimeters as units for non-parametric coordinates.

mtllib TreeParticle1.mtl
g default
v -0.500000 -0.085713 0.500000
v 0.500000 -0.215053 0.500000
v -0.500000 0.085713 0.500000
v 0.500000 0.215053 0.500000
v -0.243154 0.000000 -0.220652
v 0.500000 0.085713 -0.500000
v 0.500000 -0.085713 -0.500000
v -0.017862 -0.156645 0.675655
v -0.017862 0.156645 0.675655
v 0.651151 -0.156645 0.011755
v 0.651151 0.156645 0.011755
vt 0.375000 0.000000
vt 0.627254 -0.020136
vt 0.375000 0.250000
vt 0.631783 0.198455
vt 0.375023 0.638786
vt 0.625000 0.500000
vt 0.625000 0.750000
vt 0.375000 1.000000
vt 0.624957 1.000014
vt 0.875000 0.000000
vt 0.875000 0.250000
vt 0.125090 0.124981
vt 0.501127 -0.010068
vt 0.499979 1.000007
vt 0.503392 0.224227
vt 0.624979 0.875007
vt 0.751127 -0.010068
vt 0.628392 0.349227
vt 0.753392 0.224227
vn -0.342314 0.000000 0.939586
vn 0.123127 0.000000 0.992391
vn 0.123127 0.000000 0.992391
vn -0.342314 0.000000 0.939586
vn -0.127014 0.982014 -0.139698
vn -0.127014 0.982014 -0.139698
vn -0.133009 0.982099 -0.133378
vn -0.132985 0.982099 -0.133403
vn -0.132985 -0.982099 -0.133403
vn -0.133009 -0.982099 -0.133378
vn -0.127014 -0.982014 -0.139698
vn -0.127014 -0.982014 -0.139698
vn -0.941961 0.000000 -0.335722
vn -0.941961 0.000000 -0.335722
vn -0.941961 0.000000 -0.335722
vn 0.955270 0.000000 0.295734
vn 0.955270 0.000000 0.295734
vn 0.994102 0.000000 0.108450
vn 0.994102 0.000000 0.108450
vn -0.139014 0.982110 -0.127026
vn -0.139014 0.982110 -0.127026
vn -0.351857 0.000000 -0.936054
vn -0.351858 0.000000 -0.936054
vn -0.351858 0.000000 -0.936054
vn -0.139014 -0.982110 -0.127026
vn -0.139014 -0.982110 -0.127026
vn 0.321217 0.000000 0.947006
vn 0.321217 0.000000 0.947006
vn 0.959043 0.000000 -0.283262
vn 0.959043 0.000000 -0.283262
s 1
g pCube1
usemtl initialShadingGroup
f 1/1/1 8/13/2 9/15/3 3/3/4
s 2
f 3/3/5 9/15/6 4/4/7 5/5/8
s 3
f 5/5/9 2/9/10 8/14/11 1/8/12
s off
f 5/12/13 1/1/14 3/3/15
s 4
f 4/4/16 2/2/17 10/17/18 11/19/19
s 2
f 5/5/8 4/4/7 11/18/20 6/6/21
s off
f 5/5/22 6/6/23 7/7/24
s 3
f 2/9/10 5/5/9 7/7/25 10/16/26
s 1
f 9/15/3 8/13/2 2/2/27 4/4/28
s 4
f 11/19/19 10/17/18 7/10/29 6/11/30
